<svg xmlns="http://www.w3.org/2000/svg" viewBox="0 0 300 300"><defs><style>.cls-1{fill:none;}</style></defs><g id="Layer_2" data-name="Layer 2"><g id="backSwitch"><g id="backswitch-2" data-name="backswitch"><circle id="frame-backswitch" class="cls-1" cx="150" cy="150" r="150"/><path id="cloud" d="M280.89,76.69l-.88.11a23.83,23.83,0,0,0-23.1-3.39,25.33,25.33,0,0,0-38.85-18.19,25.36,25.36,0,0,0-47.54,2.37,23.82,23.82,0,0,0-33.23,20,18.44,18.44,0,0,0-4.3,2.1,16,16,0,0,0-2.61-.23,16.21,16.21,0,0,0,0,32.41,16,16,0,0,0,2.61-.23,18.74,18.74,0,0,0,13.48,2.87,23.79,23.79,0,0,0,30.29-1,25.35,25.35,0,0,0,36.48-.58,25.35,25.35,0,0,0,36.48.58,23.79,23.79,0,0,0,30.29,1,18.74,18.74,0,0,0,13.48-2.87c.53.08,1.06.14,1.6.18A149.53,149.53,0,0,0,280.89,76.69Z"/><path id="mountains" d="M236.14,195.75l-8,8.55,10.28,15.07-46.32-42.85.16-.05a14.57,14.57,0,0,0-17.41,2.92l-16.35,17.42,16.44,24.11L128.6,178.07l.27-.09-33.58-31.5a11.88,11.88,0,0,0-16.78.54L14.77,215A150.21,150.21,0,0,0,122.1,297.4l1.41-1.5,2.29,2.15a150.16,150.16,0,0,0,157.09-78.44l-26.14-24.52A14.57,14.57,0,0,0,236.14,195.75Z"/></g></g></g></svg>