<svg xmlns="http://www.w3.org/2000/svg" viewBox="0 0 271.62 271.62"><defs><style>.cls-1{fill:none;}.cls-2{fill:#fff;}</style></defs><g id="Layer_2" data-name="Layer 2"><g id="sun_and_moon" data-name="sun and moon"><path id="frame-halfmoon" class="cls-1" d="M231.83,39.72c-53-53-139.14-53-192.11,0s-53,139.14,0,192.11A135.84,135.84,0,1,0,231.83,39.72Z"/><path id="halfmoon" class="cls-2" d="M199.6,199.6A87.55,87.55,0,0,1,80.54,204a7.18,7.18,0,0,1-1.21-9.56A474.34,474.34,0,0,1,194.44,79.33,7.17,7.17,0,0,1,204,80.54,87.54,87.54,0,0,1,199.6,199.6ZM142.84,71.54l17.68,6.67-6.68-17.67,6.68-17.68-17.68,6.68-17.68-6.68,6.68,17.68-6.68,17.67ZM70.28,74.87l8.84,3.34-3.34-8.84,3.34-8.83-8.84,3.33-8.83-3.33,3.33,8.83-3.33,8.84ZM74.78,111l3.34-8.84-8.84,3.34-8.84-3.34L63.78,111l-3.34,8.84,8.84-3.34,8.84,3.34Z"/></g></g></svg>