<svg xmlns="http://www.w3.org/2000/svg" viewBox="0 0 271.68 271.68"><defs><style>.cls-1{fill:none;}.cls-2{fill:#fff;}</style></defs><g id="Layer_2" data-name="Layer 2"><g id="sun_and_moon" data-name="sun and moon"><path id="frame-sun" class="cls-1" d="M231.89,39.79h0a135.84,135.84,0,1,0-192.1,192.1,135.84,135.84,0,1,0,192.1-192.1Z"/><path id="sun" class="cls-2" d="M77.58,52.94a98.43,98.43,0,0,1,40.66-12.57A94.2,94.2,0,0,0,82.48,59.89C77.57,63.79,72.26,56.25,77.58,52.94Zm73.91-8.59A94.13,94.13,0,0,1,190.62,55.7,98.33,98.33,0,0,0,152.92,36,4.27,4.27,0,1,0,151.49,44.35ZM211.41,82a94,94,0,0,1,19.77,35.62A98.3,98.3,0,0,0,218.33,77C215,71.71,207.48,77.08,211.41,82Zm16,68.9a94.13,94.13,0,0,1-11.07,39.21,98.27,98.27,0,0,0,19.46-37.84A4.27,4.27,0,1,0,227.43,150.86ZM190.24,211a94.05,94.05,0,0,1-35.48,20,98.32,98.32,0,0,0,40.48-13.13C200.51,214.54,195.1,207.08,190.24,211Zm-68.79,16.49a94.06,94.06,0,0,1-39.28-10.8,98.48,98.48,0,0,0,38,19.21A4.28,4.28,0,1,0,121.45,227.53ZM40.76,155.42A98.26,98.26,0,0,0,54.17,195.8c3.42,5.26,10.84-.21,6.85-5A93.9,93.9,0,0,1,40.76,155.42Zm3.29-33.33A94,94,0,0,1,54.58,82.73a98.36,98.36,0,0,0-18.94,38.11C34.37,127,43.47,128.33,44.05,122.09ZM192.83,46.7a105.93,105.93,0,0,1,23.08,15.71,108.45,108.45,0,0,0-20-20.49A2.85,2.85,0,1,0,192.83,46.7ZM240.5,151.35a106.3,106.3,0,0,1-4.89,27.49,108.89,108.89,0,0,0,10.5-26.66A2.85,2.85,0,1,0,240.5,151.35ZM142.94,241.4a106,106,0,0,1-27.9,1.07,108.59,108.59,0,0,0,28.29,4.59A2.85,2.85,0,1,0,142.94,241.4ZM28.67,153.66a108.55,108.55,0,0,0,5.6,28.1,2.85,2.85,0,1,0,5.16-2.34A105.79,105.79,0,0,1,28.67,153.66Zm8.67-56.45A106.44,106.44,0,0,1,48.28,71.52,109,109,0,0,0,32.06,95.14,2.85,2.85,0,1,0,37.34,97.21ZM177.51,24.08A119,119,0,0,1,198,32.38a120.76,120.76,0,0,0-19.45-11A1.42,1.42,0,1,0,177.51,24.08ZM218,222.34a118.75,118.75,0,0,1-16.43,14.72,120.55,120.55,0,0,0,18.38-12.66A1.42,1.42,0,1,0,218,222.34ZM15.21,139a120.88,120.88,0,0,0,1.2,22.29,1.42,1.42,0,1,0,2.78-.59A118,118,0,0,1,15.21,139Zm210.09-3.17a89.46,89.46,0,1,1-89.46-89.46A89.46,89.46,0,0,1,225.3,135.84ZM61.62,164.31a80.29,80.29,0,0,1-.77-58.85A82,82,0,0,0,59,165.32,1.42,1.42,0,1,0,61.62,164.31ZM121.74,56.9a80.5,80.5,0,0,1,30.08-.37,81.91,81.91,0,0,0-59.17,9.22,1.42,1.42,0,1,0,1.48,2.42A80.55,80.55,0,0,1,121.74,56.9ZM185.1,198.23a80.29,80.29,0,0,1-55.95,18.24,81.9,81.9,0,0,0,57.7-16A1.41,1.41,0,1,0,185.1,198.23Zm14.45-12.52a81.93,81.93,0,0,0,18.3-57,1.42,1.42,0,1,0-2.82.24,80.32,80.32,0,0,1-15.48,56.78Z"/></g></g></svg>